<svg xmlns="http://www.w3.org/2000/svg" viewBox="0 0 32 32" width="32" height="32">
  <!-- wadachi — favicon semplificato: due solchi rastremati, leggibili a 16px -->
  <rect width="32" height="32" rx="7" fill="#101012"/>
  <path d="M 5 11.5 C 5 10.4, 5.9 9.6, 7 9.7 L 21 10.6 C 23.5 10.8, 25.5 11.2, 27 11.8 C 25.5 12.3, 23.5 12.5, 21 12.5 L 7 13.2 C 5.9 13.3, 5 12.6, 5 11.5 Z" fill="#E8E4DC"/>
  <path d="M 5 19.5 C 5 18.4, 5.9 17.6, 7 17.7 L 19.5 18.6 C 22 18.8, 24 19.2, 25.5 19.8 C 24 20.3, 22 20.5, 19.5 20.5 L 7 21.2 C 5.9 21.3, 5 20.6, 5 19.5 Z" fill="#E8E4DC"/>
  <rect x="23" y="23" width="5" height="5" rx="1.4" fill="#D9442B"/>
</svg>
