<svg xmlns="http://www.w3.org/2000/svg" viewBox="0 0 1120 320" width="1120" height="320">
  <!-- wadachi — lockup orizzontale: logomark + logotype.
       NOTA: il logotype usa il font Fraunces (Google Fonts, OFL). Per un rendering
       fedele il font deve essere installato; per asset raster usare lo script di
       build che passa da Chrome headless (vedi BRAND.md). -->
  <g fill="#E8E4DC" transform="translate(20, -36) scale(0.62)">
    <path d="M 74 184
             C 64 166, 76 150, 96 150
             C 170 146, 264 158, 344 174
             C 394 183, 434 193, 462 205
             C 434 211, 394 212, 344 208
             C 264 202, 166 200, 96 212
             C 80 214, 68 200, 74 184 Z"/>
    <path d="M 470 203 C 484 201, 494 201, 502 199 C 494 207, 484 209, 470 210 Z"/>
    <path d="M 74 300
             C 64 282, 76 266, 96 266
             C 170 262, 260 274, 336 290
             C 382 299, 418 309, 444 319
             C 418 325, 382 326, 336 322
             C 260 316, 166 314, 96 328
             C 80 330, 68 316, 74 300 Z"/>
    <path d="M 452 317 C 466 315, 476 315, 486 313 C 476 321, 466 323, 452 324 Z"/>
  </g>
  <text x="360" y="200" font-family="Fraunces, Georgia, serif" font-weight="500"
        font-size="150" letter-spacing="2" fill="#E8E4DC">wadachi</text>
  <rect x="948" y="220" width="34" height="34" rx="6" fill="#D9442B"/>
</svg>
