<svg xmlns="http://www.w3.org/2000/svg" viewBox="0 0 512 512" width="512" height="512">
  <!-- wadachi 轍 — logomark "Sumi", versione per sfondi chiari (inchiostro scuro) -->
  <g fill="#1A1815">
    <path d="M 74 184
             C 64 166, 76 150, 96 150
             C 170 146, 264 158, 344 174
             C 394 183, 434 193, 462 205
             C 434 211, 394 212, 344 208
             C 264 202, 166 200, 96 212
             C 80 214, 68 200, 74 184 Z"/>
    <path d="M 470 203 C 484 201, 494 201, 502 199 C 494 207, 484 209, 470 210 Z"/>
    <path d="M 74 300
             C 64 282, 76 266, 96 266
             C 170 262, 260 274, 336 290
             C 382 299, 418 309, 444 319
             C 418 325, 382 326, 336 322
             C 260 316, 166 314, 96 328
             C 80 330, 68 316, 74 300 Z"/>
    <path d="M 452 317 C 466 315, 476 315, 486 313 C 476 321, 466 323, 452 324 Z"/>
  </g>
  <rect x="410" y="376" width="56" height="56" rx="10" fill="#C33C22"/>
</svg>
